<svg xmlns="http://www.w3.org/2000/svg" fill="none" viewBox="0 0 24 24"><path fill="#709775" stroke="#191919" stroke-linecap="round" stroke-linejoin="round" d="M5.874 6.761a1.5 1.5 0 1 0 0-3 1.5 1.5 0 0 0 0 3Z"></path><path fill="#709775" d="M4.805 11.106c.524-1.126.341-2.323-.41-2.673-.75-.35-1.785.28-2.31 1.406-.525 1.126-.341 2.323.41 2.673.75.35 1.785-.28 2.31-1.406Z"></path><path fill="#a1cca5" d="M2.494 12.512c-.751-.35-.934-1.546-.409-2.673.525-1.127 1.559-1.755 2.31-1.405l-1.901 4.078Z"></path><path stroke="#191919" stroke-linecap="round" stroke-linejoin="round" d="M4.805 11.106c.524-1.126.341-2.323-.41-2.673-.75-.35-1.785.28-2.31 1.406-.525 1.126-.341 2.323.41 2.673.75.35 1.785-.28 2.31-1.406Z"></path><path fill="#709775" stroke="#191919" stroke-linecap="round" stroke-linejoin="round" d="M4.818 8.527a1 1 0 1 0 0-2 1 1 0 0 0 0 2Z"></path><path stroke="#191919" stroke-linecap="round" stroke-linejoin="round" d="m5.647 3.778-.319-2.081.876-.695"></path><path stroke="#191919" stroke-linecap="round" stroke-linejoin="round" d="m7.155 4.482 1.799-1.095-.031-1.118"></path><path stroke="#191919" stroke-linecap="round" stroke-linejoin="round" d="M6.469 6.636s1.518.6 2.277-.436"></path><path stroke="#191919" stroke-linecap="round" stroke-linejoin="round" d="M5.724 7.95a2.617 2.617 0 0 0 2.477.6"></path><path stroke="#191919" stroke-linecap="round" stroke-linejoin="round" d="M4.985 9.118a1.955 1.955 0 0 0 2.371 1.247"></path><path stroke="#191919" stroke-linecap="round" stroke-linejoin="round" d="M4.446 5.716s-1.483-.826-1.181-2.07"></path><path stroke="#191919" stroke-linecap="round" stroke-linejoin="round" d="M3.868 7.085a2.616 2.616 0 0 1-2.054-1.51"></path><path stroke="#191919" stroke-linecap="round" stroke-linejoin="round" d="M3.5 8.421A2.027 2.027 0 0 1 .969 7.388"></path><path fill="#709775" stroke="#191919" stroke-linecap="round" stroke-linejoin="round" d="M18.733 6.737a1.5 1.5 0 1 0 0-3 1.5 1.5 0 0 0 0 3Z"></path><path fill="#709775" d="M20.503 13.038c.808-.183 1.24-1.314.965-2.526-.275-1.212-1.153-2.046-1.961-1.862-.808.183-1.24 1.314-.965 2.526.275 1.212 1.153 2.045 1.96 1.862Z"></path><path fill="#a1cca5" d="M19.507 8.65c.808-.183 1.686.651 1.961 1.863.275 1.212-.157 2.342-.965 2.526l-.996-4.389Z"></path><path stroke="#191919" stroke-linecap="round" stroke-linejoin="round" d="M20.503 13.038c.808-.183 1.24-1.314.965-2.526-.275-1.212-1.153-2.046-1.961-1.862-.808.183-1.24 1.314-.965 2.526.275 1.212 1.153 2.045 1.96 1.862Z"></path><path fill="#709775" stroke="#191919" stroke-linecap="round" stroke-linejoin="round" d="M19.286 8.675a1 1 0 1 0 0-2 1 1 0 0 0 0 2Z"></path><path stroke="#191919" stroke-linecap="round" stroke-linejoin="round" d="m17.646 4.205-1.528-1.451.267-1.086"></path><path stroke="#191919" stroke-linecap="round" stroke-linejoin="round" d="m19.267 3.837.752-1.968-.709-.865"></path><path stroke="#191919" stroke-linecap="round" stroke-linejoin="round" d="M20.019 6.006s1.592-.506 1.559-1.786"></path><path stroke="#191919" stroke-linecap="round" stroke-linejoin="round" d="M20.261 7.454a2.618 2.618 0 0 0 2.328-1.041"></path><path stroke="#191919" stroke-linecap="round" stroke-linejoin="round" d="M20.394 8.83a1.954 1.954 0 0 0 2.637-.467"></path><path stroke="#191919" stroke-linecap="round" stroke-linejoin="round" d="M17.928 6.5s-1.724.226-2.247-.943"></path><path stroke="#191919" stroke-linecap="round" stroke-linejoin="round" d="M18.265 7.907a2.618 2.618 0 0 1-2.549.066"></path><path stroke="#191919" stroke-linecap="round" stroke-linejoin="round" d="M18.789 9.192a2.029 2.029 0 0 1-2.63.731"></path><path fill="#709775" stroke="#191919" stroke-linecap="round" stroke-linejoin="round" d="M9.885 19.64a1.5 1.5 0 1 0 0-3 1.5 1.5 0 0 0 0 3Z"></path><path fill="#709775" d="M5.3 21.92c1.127-.523 1.758-1.556 1.41-2.308-.349-.751-1.545-.937-2.673-.414-1.127.522-1.758 1.555-1.41 2.307.348.752 1.545.937 2.672.415Z"></path><path fill="#a1cca5" d="M2.627 21.505c-.348-.751.283-1.784 1.41-2.307 1.127-.523 2.324-.337 2.673.414l-4.083 1.893Z"></path><path stroke="#191919" stroke-linecap="round" stroke-linejoin="round" d="M5.3 21.92c1.127-.523 1.758-1.556 1.41-2.308-.349-.751-1.545-.937-2.673-.414-1.127.522-1.758 1.555-1.41 2.307.348.752 1.545.937 2.672.415Z"></path><path fill="#709775" stroke="#191919" stroke-linecap="round" stroke-linejoin="round" d="M7.617 20.192a1 1 0 1 0 0-2 1 1 0 0 0 0 2Z"></path><path stroke="#191919" stroke-linecap="round" stroke-linejoin="round" d="m10.667 16.861 1.098-1.797 1.118.033"></path><path stroke="#191919" stroke-linecap="round" stroke-linejoin="round" d="m11.385 18.373 2.063.32.697-.874"></path><path stroke="#191919" stroke-linecap="round" stroke-linejoin="round" d="M9.447 19.573s.783 1.436 2.028 1.137"></path><path stroke="#191919" stroke-linecap="round" stroke-linejoin="round" d="M8.037 20.1a2.618 2.618 0 0 0 1.506 2.058"></path><path stroke="#191919" stroke-linecap="round" stroke-linejoin="round" d="M6.72 20.517A1.954 1.954 0 0 0 7.728 23"></path><path stroke="#191919" stroke-linecap="round" stroke-linejoin="round" d="M8.547 17.465s-.648-1.485.385-2.242"></path><path stroke="#191919" stroke-linecap="round" stroke-linejoin="round" d="M7.176 18.242a2.618 2.618 0 0 1-.6-2.479"></path><path stroke="#191919" stroke-linecap="round" stroke-linejoin="round" d="M6.03 19.022A2.027 2.027 0 0 1 4.764 16.6"></path></svg>