<svg xmlns="http://www.w3.org/2000/svg" xmlns:xlink="http://www.w3.org/1999/xlink" width="500" zoomAndPan="magnify" viewBox="0 0 375 374.999991" height="500" preserveAspectRatio="xMidYMid meet" version="1.0"><defs><g/><clipPath id="9e05ffabf4"><path d="M 115.398438 151.464844 L 289.398438 151.464844 L 289.398438 223.464844 L 115.398438 223.464844 Z M 115.398438 151.464844 " clip-rule="nonzero"/></clipPath><clipPath id="9d665b89ed"><path d="M 120.550781 158.238281 L 187.332031 158.238281 L 187.332031 216.761719 L 120.550781 216.761719 Z M 120.550781 158.238281 " clip-rule="nonzero"/></clipPath></defs><g clip-path="url(#9e05ffabf4)"><path stroke-linecap="butt" transform="matrix(0.749848, 0, 0, 0.749268, 115.397311, 151.466152)" fill="none" stroke-linejoin="miter" d="M 0.00150294 -0.00174664 L 232.048381 -0.00174664 L 232.048381 96.092007 L 0.00150294 96.092007 L 0.00150294 -0.00174664 " stroke="#709775" stroke-width="6" stroke-opacity="1" stroke-miterlimit="4"/></g><g clip-path="url(#9d665b89ed)"><path fill="#709775" d="M 120.550781 158.238281 L 187.457031 158.238281 L 187.457031 216.84375 L 120.550781 216.84375 Z M 120.550781 158.238281 " fill-opacity="1" fill-rule="nonzero"/></g><g fill="#d1e6d3" fill-opacity="1"><g transform="translate(128.681963, 196.559137)"><g><path d="M 16.765625 -10.21875 C 17.890625 -9.863281 18.769531 -9.269531 19.40625 -8.4375 C 20.050781 -7.601562 20.375 -6.578125 20.375 -5.359375 C 20.375 -3.640625 19.703125 -2.316406 18.359375 -1.390625 C 17.015625 -0.460938 15.0625 0 12.5 0 L 2.328125 0 L 2.328125 -19.671875 L 11.9375 -19.671875 C 14.332031 -19.671875 16.171875 -19.207031 17.453125 -18.28125 C 18.742188 -17.363281 19.390625 -16.117188 19.390625 -14.546875 C 19.390625 -13.597656 19.160156 -12.75 18.703125 -12 C 18.242188 -11.25 17.597656 -10.65625 16.765625 -10.21875 Z M 6.859375 -16.234375 L 6.859375 -11.609375 L 11.375 -11.609375 C 12.5 -11.609375 13.351562 -11.800781 13.9375 -12.1875 C 14.519531 -12.582031 14.8125 -13.164062 14.8125 -13.9375 C 14.8125 -14.707031 14.519531 -15.28125 13.9375 -15.65625 C 13.351562 -16.039062 12.5 -16.234375 11.375 -16.234375 Z M 12.171875 -3.421875 C 13.367188 -3.421875 14.269531 -3.617188 14.875 -4.015625 C 15.476562 -4.410156 15.78125 -5.019531 15.78125 -5.84375 C 15.78125 -7.46875 14.578125 -8.28125 12.171875 -8.28125 L 6.859375 -8.28125 L 6.859375 -3.421875 Z M 12.171875 -3.421875 "/></g></g></g><g fill="#d1e6d3" fill-opacity="1"><g transform="translate(152.296496, 196.559137)"><g><path d="M 2.328125 -19.671875 L 6.890625 -19.671875 L 6.890625 0 L 2.328125 0 Z M 2.328125 -19.671875 "/></g></g></g><g fill="#d1e6d3" fill-opacity="1"><g transform="translate(163.640903, 196.559137)"><g><path d="M 11.859375 0.34375 C 9.816406 0.34375 7.972656 -0.09375 6.328125 -0.96875 C 4.691406 -1.851562 3.410156 -3.066406 2.484375 -4.609375 C 1.554688 -6.160156 1.09375 -7.898438 1.09375 -9.828125 C 1.09375 -11.753906 1.554688 -13.488281 2.484375 -15.03125 C 3.410156 -16.582031 4.691406 -17.796875 6.328125 -18.671875 C 7.972656 -19.554688 9.816406 -20 11.859375 -20 C 13.898438 -20 15.734375 -19.554688 17.359375 -18.671875 C 18.992188 -17.796875 20.273438 -16.582031 21.203125 -15.03125 C 22.140625 -13.488281 22.609375 -11.753906 22.609375 -9.828125 C 22.609375 -7.898438 22.140625 -6.160156 21.203125 -4.609375 C 20.273438 -3.066406 18.992188 -1.851562 17.359375 -0.96875 C 15.734375 -0.09375 13.898438 0.34375 11.859375 0.34375 Z M 11.859375 -3.546875 C 13.015625 -3.546875 14.0625 -3.8125 15 -4.34375 C 15.9375 -4.875 16.671875 -5.613281 17.203125 -6.5625 C 17.742188 -7.519531 18.015625 -8.609375 18.015625 -9.828125 C 18.015625 -11.046875 17.742188 -12.132812 17.203125 -13.09375 C 16.671875 -14.050781 15.9375 -14.796875 15 -15.328125 C 14.0625 -15.859375 13.015625 -16.125 11.859375 -16.125 C 10.691406 -16.125 9.640625 -15.859375 8.703125 -15.328125 C 7.765625 -14.796875 7.03125 -14.050781 6.5 -13.09375 C 5.96875 -12.132812 5.703125 -11.046875 5.703125 -9.828125 C 5.703125 -8.609375 5.96875 -7.519531 6.5 -6.5625 C 7.03125 -5.613281 7.765625 -4.875 8.703125 -4.34375 C 9.640625 -3.8125 10.691406 -3.546875 11.859375 -3.546875 Z M 11.859375 -3.546875 "/></g></g></g><g fill="#709775" fill-opacity="1"><g transform="translate(187.332926, 196.559137)"><g><path d="M 2.328125 -19.671875 L 6.890625 -19.671875 L 6.890625 -3.703125 L 16.75 -3.703125 L 16.75 0 L 2.328125 0 Z M 2.328125 -19.671875 "/></g></g></g><g fill="#709775" fill-opacity="1"><g transform="translate(204.292084, 196.559137)"><g><path d="M 11.859375 0.34375 C 9.816406 0.34375 7.972656 -0.09375 6.328125 -0.96875 C 4.691406 -1.851562 3.410156 -3.066406 2.484375 -4.609375 C 1.554688 -6.160156 1.09375 -7.898438 1.09375 -9.828125 C 1.09375 -11.753906 1.554688 -13.488281 2.484375 -15.03125 C 3.410156 -16.582031 4.691406 -17.796875 6.328125 -18.671875 C 7.972656 -19.554688 9.816406 -20 11.859375 -20 C 13.898438 -20 15.734375 -19.554688 17.359375 -18.671875 C 18.992188 -17.796875 20.273438 -16.582031 21.203125 -15.03125 C 22.140625 -13.488281 22.609375 -11.753906 22.609375 -9.828125 C 22.609375 -7.898438 22.140625 -6.160156 21.203125 -4.609375 C 20.273438 -3.066406 18.992188 -1.851562 17.359375 -0.96875 C 15.734375 -0.09375 13.898438 0.34375 11.859375 0.34375 Z M 11.859375 -3.546875 C 13.015625 -3.546875 14.0625 -3.8125 15 -4.34375 C 15.9375 -4.875 16.671875 -5.613281 17.203125 -6.5625 C 17.742188 -7.519531 18.015625 -8.609375 18.015625 -9.828125 C 18.015625 -11.046875 17.742188 -12.132812 17.203125 -13.09375 C 16.671875 -14.050781 15.9375 -14.796875 15 -15.328125 C 14.0625 -15.859375 13.015625 -16.125 11.859375 -16.125 C 10.691406 -16.125 9.640625 -15.859375 8.703125 -15.328125 C 7.765625 -14.796875 7.03125 -14.050781 6.5 -13.09375 C 5.96875 -12.132812 5.703125 -11.046875 5.703125 -9.828125 C 5.703125 -8.609375 5.96875 -7.519531 6.5 -6.5625 C 7.03125 -5.613281 7.765625 -4.875 8.703125 -4.34375 C 9.640625 -3.8125 10.691406 -3.546875 11.859375 -3.546875 Z M 11.859375 -3.546875 "/></g></g></g><g fill="#709775" fill-opacity="1"><g transform="translate(227.989981, 196.559137)"><g><path d="M 10.84375 -19.671875 C 12.582031 -19.671875 14.09375 -19.378906 15.375 -18.796875 C 16.664062 -18.210938 17.65625 -17.382812 18.34375 -16.3125 C 19.039062 -15.25 19.390625 -13.988281 19.390625 -12.53125 C 19.390625 -11.082031 19.039062 -9.820312 18.34375 -8.75 C 17.65625 -7.675781 16.664062 -6.851562 15.375 -6.28125 C 14.09375 -5.707031 12.582031 -5.421875 10.84375 -5.421875 L 6.890625 -5.421875 L 6.890625 0 L 2.328125 0 L 2.328125 -19.671875 Z M 10.59375 -9.125 C 11.957031 -9.125 12.992188 -9.421875 13.703125 -10.015625 C 14.421875 -10.609375 14.78125 -11.445312 14.78125 -12.53125 C 14.78125 -13.632812 14.421875 -14.476562 13.703125 -15.0625 C 12.992188 -15.65625 11.957031 -15.953125 10.59375 -15.953125 L 6.890625 -15.953125 L 6.890625 -9.125 Z M 10.59375 -9.125 "/></g></g></g><g fill="#709775" fill-opacity="1"><g transform="translate(248.543134, 196.559137)"><g><path d="M 17.5625 -3.65625 L 17.5625 0 L 2.328125 0 L 2.328125 -19.671875 L 17.1875 -19.671875 L 17.1875 -16.015625 L 6.859375 -16.015625 L 6.859375 -11.75 L 15.984375 -11.75 L 15.984375 -8.203125 L 6.859375 -8.203125 L 6.859375 -3.65625 Z M 17.5625 -3.65625 "/></g></g></g><g fill="#709775" fill-opacity="1"><g transform="translate(267.383529, 196.559137)"><g><path d="M 8.796875 0.34375 C 7.242188 0.34375 5.738281 0.132812 4.28125 -0.28125 C 2.832031 -0.707031 1.664062 -1.257812 0.78125 -1.9375 L 2.328125 -5.359375 C 3.171875 -4.742188 4.171875 -4.25 5.328125 -3.875 C 6.492188 -3.5 7.660156 -3.3125 8.828125 -3.3125 C 10.117188 -3.3125 11.070312 -3.503906 11.6875 -3.890625 C 12.300781 -4.273438 12.609375 -4.785156 12.609375 -5.421875 C 12.609375 -5.890625 12.425781 -6.273438 12.0625 -6.578125 C 11.695312 -6.890625 11.226562 -7.140625 10.65625 -7.328125 C 10.09375 -7.515625 9.320312 -7.722656 8.34375 -7.953125 C 6.84375 -8.304688 5.613281 -8.660156 4.65625 -9.015625 C 3.707031 -9.367188 2.890625 -9.9375 2.203125 -10.71875 C 1.523438 -11.507812 1.1875 -12.5625 1.1875 -13.875 C 1.1875 -15.019531 1.492188 -16.054688 2.109375 -16.984375 C 2.722656 -17.910156 3.648438 -18.644531 4.890625 -19.1875 C 6.140625 -19.726562 7.664062 -20 9.46875 -20 C 10.71875 -20 11.941406 -19.847656 13.140625 -19.546875 C 14.347656 -19.253906 15.398438 -18.828125 16.296875 -18.265625 L 14.890625 -14.8125 C 13.078125 -15.832031 11.257812 -16.34375 9.4375 -16.34375 C 8.164062 -16.34375 7.222656 -16.132812 6.609375 -15.71875 C 6.003906 -15.3125 5.703125 -14.773438 5.703125 -14.109375 C 5.703125 -13.429688 6.050781 -12.925781 6.75 -12.59375 C 7.457031 -12.269531 8.53125 -11.945312 9.96875 -11.625 C 11.46875 -11.269531 12.695312 -10.914062 13.65625 -10.5625 C 14.613281 -10.207031 15.429688 -9.644531 16.109375 -8.875 C 16.796875 -8.101562 17.140625 -7.066406 17.140625 -5.765625 C 17.140625 -4.640625 16.820312 -3.613281 16.1875 -2.6875 C 15.5625 -1.757812 14.617188 -1.019531 13.359375 -0.46875 C 12.109375 0.0703125 10.585938 0.34375 8.796875 0.34375 Z M 8.796875 0.34375 "/></g></g></g><g fill="#709775" fill-opacity="1"><g transform="translate(224.355122, 239.387387)"><g><path d="M 2.265625 -8.5625 L 2.265625 -4.640625 L 7.15625 -4.640625 L 7.15625 -4.046875 L 2.265625 -4.046875 L 2.265625 0 L 1.59375 0 L 1.59375 -9.171875 L 7.71875 -9.171875 L 7.71875 -8.5625 Z M 2.265625 -8.5625 "/></g></g></g><g fill="#709775" fill-opacity="1"><g transform="translate(232.607399, 239.387387)"><g><path d="M 7.265625 -2.578125 L 1.953125 -2.578125 L 0.78125 0 L 0.0625 0 L 4.28125 -9.171875 L 4.953125 -9.171875 L 9.171875 0 L 8.453125 0 Z M 7.015625 -3.140625 L 4.609375 -8.4375 L 2.21875 -3.140625 Z M 7.015625 -3.140625 "/></g></g></g><g fill="#709775" fill-opacity="1"><g transform="translate(241.827456, 239.387387)"><g><path d="M 5.46875 0.0625 C 4.570312 0.0625 3.765625 -0.132812 3.046875 -0.53125 C 2.328125 -0.9375 1.757812 -1.492188 1.34375 -2.203125 C 0.925781 -2.910156 0.71875 -3.703125 0.71875 -4.578125 C 0.71875 -5.460938 0.925781 -6.257812 1.34375 -6.96875 C 1.757812 -7.675781 2.328125 -8.226562 3.046875 -8.625 C 3.765625 -9.03125 4.570312 -9.234375 5.46875 -9.234375 C 6.132812 -9.234375 6.742188 -9.125 7.296875 -8.90625 C 7.859375 -8.695312 8.335938 -8.382812 8.734375 -7.96875 L 8.3125 -7.53125 C 7.582031 -8.25 6.644531 -8.609375 5.5 -8.609375 C 4.726562 -8.609375 4.03125 -8.429688 3.40625 -8.078125 C 2.78125 -7.734375 2.285156 -7.253906 1.921875 -6.640625 C 1.566406 -6.023438 1.390625 -5.335938 1.390625 -4.578125 C 1.390625 -3.816406 1.566406 -3.128906 1.921875 -2.515625 C 2.285156 -1.898438 2.78125 -1.414062 3.40625 -1.0625 C 4.03125 -0.71875 4.726562 -0.546875 5.5 -0.546875 C 6.632812 -0.546875 7.570312 -0.914062 8.3125 -1.65625 L 8.734375 -1.21875 C 8.335938 -0.800781 7.859375 -0.484375 7.296875 -0.265625 C 6.734375 -0.046875 6.125 0.0625 5.46875 0.0625 Z M 5.0625 2.84375 C 4.644531 2.84375 4.300781 2.734375 4.03125 2.515625 L 4.203125 2.140625 C 4.441406 2.328125 4.726562 2.421875 5.0625 2.421875 C 5.320312 2.421875 5.53125 2.359375 5.6875 2.234375 C 5.84375 2.117188 5.921875 1.953125 5.921875 1.734375 C 5.921875 1.523438 5.847656 1.359375 5.703125 1.234375 C 5.554688 1.117188 5.34375 1.0625 5.0625 1.0625 L 4.796875 1.0625 L 5.09375 -0.078125 L 5.53125 -0.078125 L 5.328125 0.703125 C 5.671875 0.734375 5.941406 0.84375 6.140625 1.03125 C 6.335938 1.21875 6.4375 1.457031 6.4375 1.75 C 6.4375 2.082031 6.304688 2.347656 6.046875 2.546875 C 5.785156 2.742188 5.457031 2.84375 5.0625 2.84375 Z M 5.0625 2.84375 "/></g></g></g><g fill="#709775" fill-opacity="1"><g transform="translate(251.191367, 239.387387)"><g><path d="M 7.265625 -2.578125 L 1.953125 -2.578125 L 0.78125 0 L 0.0625 0 L 4.28125 -9.171875 L 4.953125 -9.171875 L 9.171875 0 L 8.453125 0 Z M 7.015625 -3.140625 L 4.609375 -8.4375 L 2.21875 -3.140625 Z M 7.015625 -3.140625 "/></g></g></g><g fill="#709775" fill-opacity="1"><g transform="translate(260.411424, 239.387387)"><g><path d="M 1.59375 -9.171875 L 5.21875 -9.171875 C 6.175781 -9.171875 7.019531 -8.972656 7.75 -8.578125 C 8.488281 -8.179688 9.0625 -7.632812 9.46875 -6.9375 C 9.882812 -6.25 10.09375 -5.460938 10.09375 -4.578125 C 10.09375 -3.703125 9.882812 -2.914062 9.46875 -2.21875 C 9.0625 -1.519531 8.488281 -0.972656 7.75 -0.578125 C 7.019531 -0.191406 6.175781 0 5.21875 0 L 1.59375 0 Z M 5.171875 -0.609375 C 6.015625 -0.609375 6.757812 -0.773438 7.40625 -1.109375 C 8.050781 -1.441406 8.546875 -1.910156 8.890625 -2.515625 C 9.242188 -3.117188 9.421875 -3.804688 9.421875 -4.578125 C 9.421875 -5.359375 9.242188 -6.050781 8.890625 -6.65625 C 8.546875 -7.257812 8.050781 -7.726562 7.40625 -8.0625 C 6.757812 -8.394531 6.015625 -8.5625 5.171875 -8.5625 L 2.265625 -8.5625 L 2.265625 -0.609375 Z M 5.171875 -0.609375 "/></g></g></g><g fill="#709775" fill-opacity="1"><g transform="translate(271.213925, 239.387387)"><g><path d="M 7.921875 -0.609375 L 7.921875 0 L 1.59375 0 L 1.59375 -9.171875 L 7.71875 -9.171875 L 7.71875 -8.5625 L 2.265625 -8.5625 L 2.265625 -4.953125 L 7.15625 -4.953125 L 7.15625 -4.359375 L 2.265625 -4.359375 L 2.265625 -0.609375 Z M 7.921875 -0.609375 "/></g></g></g><g fill="#709775" fill-opacity="1"><g transform="translate(279.963173, 239.387387)"><g><path d="M 4 0.0625 C 3.332031 0.0625 2.691406 -0.0507812 2.078125 -0.28125 C 1.472656 -0.507812 1.003906 -0.804688 0.671875 -1.171875 L 0.96875 -1.671875 C 1.289062 -1.335938 1.722656 -1.0625 2.265625 -0.84375 C 2.816406 -0.632812 3.394531 -0.53125 4 -0.53125 C 4.863281 -0.53125 5.519531 -0.691406 5.96875 -1.015625 C 6.414062 -1.347656 6.640625 -1.78125 6.640625 -2.3125 C 6.640625 -2.726562 6.519531 -3.054688 6.28125 -3.296875 C 6.050781 -3.546875 5.757812 -3.734375 5.40625 -3.859375 C 5.0625 -3.992188 4.59375 -4.128906 4 -4.265625 C 3.320312 -4.429688 2.78125 -4.59375 2.375 -4.75 C 1.96875 -4.90625 1.625 -5.144531 1.34375 -5.46875 C 1.0625 -5.800781 0.921875 -6.242188 0.921875 -6.796875 C 0.921875 -7.242188 1.035156 -7.648438 1.265625 -8.015625 C 1.503906 -8.390625 1.863281 -8.6875 2.34375 -8.90625 C 2.832031 -9.125 3.4375 -9.234375 4.15625 -9.234375 C 4.664062 -9.234375 5.164062 -9.15625 5.65625 -9 C 6.144531 -8.851562 6.566406 -8.65625 6.921875 -8.40625 L 6.671875 -7.875 C 6.304688 -8.125 5.90625 -8.3125 5.46875 -8.4375 C 5.03125 -8.570312 4.59375 -8.640625 4.15625 -8.640625 C 3.3125 -8.640625 2.671875 -8.46875 2.234375 -8.125 C 1.796875 -7.789062 1.578125 -7.351562 1.578125 -6.8125 C 1.578125 -6.394531 1.695312 -6.0625 1.9375 -5.8125 C 2.175781 -5.570312 2.46875 -5.382812 2.8125 -5.25 C 3.164062 -5.125 3.644531 -4.988281 4.25 -4.84375 C 4.914062 -4.675781 5.445312 -4.515625 5.84375 -4.359375 C 6.25 -4.203125 6.59375 -3.960938 6.875 -3.640625 C 7.164062 -3.328125 7.3125 -2.898438 7.3125 -2.359375 C 7.3125 -1.910156 7.191406 -1.503906 6.953125 -1.140625 C 6.710938 -0.773438 6.34375 -0.484375 5.84375 -0.265625 C 5.34375 -0.046875 4.726562 0.0625 4 0.0625 Z M 4 0.0625 "/></g></g></g></svg>