<svg xmlns="http://www.w3.org/2000/svg" fill="none" viewBox="0 0 24 24"><path fill="#709775" d="M7.02 7.257c.351-.094.69-.184 1-.262a2.461 2.461 0 0 1 1-.05 5.334 5.334 0 0 0 .5-3.445A7.046 7.046 0 0 0 8.02 1S6.911 1 6.344 4.3c.457.918.688 1.932.676 2.957Z"></path><path stroke="#191919" stroke-linecap="round" stroke-linejoin="round" d="M9.02 6.944a5.334 5.334 0 0 0 .5-3.444A7.046 7.046 0 0 0 8.02 1s-.5 0-1 1"></path><path fill="#a1cca5" d="M10.364 7.651A8.794 8.794 0 0 1 8.02 9.995a4.912 4.912 0 0 1-7-2 9.2 9.2 0 0 0 3.96-.227c-1-.507-3.083-2-3.46-5.773a20.58 20.58 0 0 1 4 1.5c1.349.675 1.49 3.014 1.5 3.762.351-.094.69-.184 1-.262a2.767 2.767 0 0 1 3 1.5"></path><path stroke="#191919" stroke-linecap="round" stroke-linejoin="round" d="M10.364 7.651A8.794 8.794 0 0 1 8.02 9.995a4.912 4.912 0 0 1-7-2 9.2 9.2 0 0 0 3.96-.227c-1-.507-3.083-2-3.46-5.773a20.58 20.58 0 0 1 4 1.5c1.349.675 1.49 3.014 1.5 3.762.351-.094.69-.184 1-.262a2.767 2.767 0 0 1 3 1.5"></path><path fill="#709775" d="M18.981 11.794c.35-.094.689-.185 1-.262a2.445 2.445 0 0 1 1-.051 5.331 5.331 0 0 0 .5-3.448 7.046 7.046 0 0 0-1.5-2.5s-1.109 0-1.675 3.3a6.47 6.47 0 0 1 .675 2.961Z"></path><path stroke="#191919" stroke-linecap="round" stroke-linejoin="round" d="M20.98 11.48a5.331 5.331 0 0 0 .5-3.448 7.046 7.046 0 0 0-1.5-2.5s-.5 0-1 1"></path><path fill="#a1cca5" d="M22.324 12.188a8.795 8.795 0 0 1-2.344 2.344 4.913 4.913 0 0 1-7-2 9.214 9.214 0 0 0 3.961-.227c-1-.508-3.084-2-3.461-5.773a20.58 20.58 0 0 1 4 1.5c1.349.674 1.49 3.013 1.5 3.762.35-.094.689-.185 1-.262a2.767 2.767 0 0 1 3 1.5"></path><path stroke="#191919" stroke-linecap="round" stroke-linejoin="round" d="M22.324 12.188a8.795 8.795 0 0 1-2.344 2.344 4.913 4.913 0 0 1-7-2 9.214 9.214 0 0 0 3.961-.227c-1-.508-3.084-2-3.461-5.773a20.58 20.58 0 0 1 4 1.5c1.349.674 1.49 3.013 1.5 3.762.35-.094.689-.185 1-.262a2.767 2.767 0 0 1 3 1.5"></path><path fill="#709775" d="M8.481 19.53c.35-.094.689-.184 1-.262a2.446 2.446 0 0 1 1-.05 5.334 5.334 0 0 0 .5-3.449 7.046 7.046 0 0 0-1.5-2.5s-1.109 0-1.675 3.3c.457.92.688 1.934.675 2.961Z"></path><path stroke="#191919" stroke-linecap="round" stroke-linejoin="round" d="M10.48 19.217a5.334 5.334 0 0 0 .5-3.45 7.046 7.046 0 0 0-1.5-2.5s-.5 0-1 1"></path><g><path fill="#a1cca5" d="M11.824 19.924a8.792 8.792 0 0 1-2.344 2.344 4.912 4.912 0 0 1-7-2 9.198 9.198 0 0 0 3.961-.227c-1-.507-3.084-2-3.461-5.773a20.55 20.55 0 0 1 4 1.5c1.349.675 1.49 3.014 1.5 3.762.35-.094.689-.184 1-.262a2.767 2.767 0 0 1 3 1.5"></path><path stroke="#191919" stroke-linecap="round" stroke-linejoin="round" d="M11.824 19.924a8.792 8.792 0 0 1-2.344 2.344 4.912 4.912 0 0 1-7-2 9.198 9.198 0 0 0 3.961-.227c-1-.507-3.084-2-3.461-5.773a20.55 20.55 0 0 1 4 1.5c1.349.675 1.49 3.014 1.5 3.762.35-.094.689-.184 1-.262a2.767 2.767 0 0 1 3 1.5"></path></g></svg>