<svg xmlns="http://www.w3.org/2000/svg" fill="none" viewBox="0 0 24 24"><path fill="#709775" stroke="#191919" stroke-linecap="round" stroke-linejoin="round" d="M15.769 10.159C13.492 2.468 18.739.5 18.739.5c1.5 2.5 1.111 7.4-.889 8.9-.72.176-1.417.43-2.081.759v0Z"></path><path fill="#a1cca5" d="M21.37 10.56c-4 7-10.2 10.93-15.2 10.93a17.708 17.708 0 0 1 5.07-8.3S6.87 10.9 5.24 9a30.558 30.558 0 0 1-4.5-7c8 0 11.5 3.5 13.5 8.96.87-.507 1.78-.942 2.72-1.3a3.967 3.967 0 0 1 4.39.9h.02Z"></path><path fill="#709775" d="M13.776 9.733C11.7 5.018 8.149 2.058.8 2.058a27.647 27.647 0 0 0 1.971 3.584c4.971.287 8.459 1.745 11.005 4.091Z"></path><path stroke="#191919" stroke-linecap="round" stroke-linejoin="round" d="M21.37 10.56c-4 7-10.2 10.93-15.2 10.93a17.708 17.708 0 0 1 5.07-8.3S6.87 10.9 5.24 9a30.558 30.558 0 0 1-4.5-7c8 0 11.5 3.5 13.5 8.96.87-.507 1.78-.942 2.72-1.3a3.967 3.967 0 0 1 4.39.9h.02Z"></path><path stroke="#191919" stroke-linecap="round" stroke-linejoin="round" d="M6.17 21.49c-.19.66-.334 1.33-.43 2.01"></path><path stroke="#191919" stroke-linecap="round" stroke-linejoin="round" d="M23.26 11.5a2.368 2.368 0 0 0-1.89-.94"></path></svg>